<?xml version="1.0" encoding="utf-8"?>
<!-- Generator: Adobe Illustrator 16.0.0, SVG Export Plug-In . SVG Version: 6.00 Build 0)  -->
<!DOCTYPE svg PUBLIC "-//W3C//DTD SVG 1.1//EN" "http://www.w3.org/Graphics/SVG/1.1/DTD/svg11.dtd">
<svg version="1.1" id="Capa_1" xmlns="http://www.w3.org/2000/svg" xmlns:xlink="http://www.w3.org/1999/xlink" x="0px" y="0px"
	 width="1080px" height="119px" viewBox="0 910.5 1080 119" enable-background="new 0 910.5 1080 119" xml:space="preserve">
<path fill="#FFFFFF" d="M58.931,980.5v39.549h-18.83v-101.22h30.87c6.906,0,12.821,0.712,17.745,2.135
	c4.923,1.424,8.96,3.419,12.11,5.985c3.15,2.567,5.46,5.635,6.93,9.205c1.47,3.57,2.205,7.502,2.205,11.795
	c0,3.407-0.502,6.627-1.505,9.66c-1.004,3.034-2.45,5.787-4.34,8.26c-1.89,2.475-4.224,4.645-7,6.51
	c-2.777,1.867-5.939,3.36-9.485,4.48c2.38,1.354,4.433,3.29,6.16,5.811l25.34,37.379h-16.94c-1.634,0-3.022-0.326-4.165-0.979
	c-1.144-0.653-2.112-1.586-2.905-2.8l-21.28-32.41c-0.794-1.213-1.669-2.076-2.625-2.59c-0.957-0.514-2.369-0.77-4.235-0.77H58.931z
	 M58.931,966.989h11.76c3.546,0,6.638-0.442,9.275-1.33c2.636-0.886,4.806-2.11,6.51-3.675c1.703-1.563,2.975-3.418,3.815-5.565
	c0.84-2.146,1.26-4.503,1.26-7.07c0-5.133-1.692-9.076-5.075-11.83c-3.384-2.753-8.552-4.13-15.505-4.13h-12.04V966.989z"/>
<path fill="#FFFFFF" d="M195.011,918.829v14.98h-44.87v28.07h35.35v14.49h-35.35V1005h44.87v15.049h-63.84v-101.22H195.011z"/>
<path fill="#FFFFFF" d="M300.29,1020.049h-14.56c-1.634,0-2.975-0.408-4.025-1.225s-1.809-1.831-2.275-3.045l-7.56-20.65h-41.93
	l-7.56,20.65c-0.374,1.074-1.109,2.055-2.205,2.939c-1.097,0.888-2.439,1.33-4.025,1.33h-14.63l39.76-101.22h19.25L300.29,1020.049z
	 M234.77,981.829h32.27l-12.32-33.67c-0.56-1.493-1.179-3.255-1.855-5.285c-0.677-2.03-1.342-4.235-1.995-6.615
	c-0.654,2.38-1.295,4.597-1.925,6.65c-0.63,2.054-1.25,3.85-1.855,5.39L234.77,981.829z"/>
<path fill="#FFFFFF" d="M329.549,1004.51h40.53v15.539h-59.36v-101.22h18.83V1004.51z"/>
<path fill="#FFFFFF" d="M435.529,933.04c-0.42,0.794-1.027,1.19-1.82,1.19c-0.609,0-1.394-0.431-2.353-1.295
	c-0.96-0.863-2.26-1.82-3.898-2.87c-1.638-1.05-3.687-2.018-6.145-2.905c-2.458-0.886-5.488-1.33-9.093-1.33
	s-6.777,0.514-9.516,1.54c-2.739,1.027-5.034,2.427-6.883,4.2c-1.85,1.774-3.254,3.827-4.213,6.16
	c-0.96,2.334-1.439,4.784-1.439,7.35c0,3.36,0.712,6.137,2.137,8.33c1.425,2.194,3.306,4.06,5.644,5.6
	c2.336,1.54,4.989,2.834,7.956,3.885c2.967,1.05,6.017,2.089,9.148,3.115c3.13,1.026,6.18,2.158,9.147,3.395
	c2.967,1.236,5.62,2.789,7.956,4.654c2.336,1.867,4.218,4.166,5.644,6.896c1.425,2.729,2.138,6.125,2.138,10.185
	c0,4.154-0.712,8.063-2.135,11.726c-1.424,3.664-3.489,6.849-6.195,9.556c-2.707,2.707-6.02,4.842-9.94,6.404
	s-8.4,2.346-13.44,2.346c-6.534,0-12.157-1.156-16.87-3.466c-4.714-2.31-8.844-5.471-12.39-9.485l1.96-3.08
	c0.56-0.699,1.213-1.049,1.96-1.049c0.42,0,0.958,0.279,1.612,0.84c0.654,0.56,1.448,1.248,2.383,2.064
	c0.934,0.817,2.056,1.704,3.364,2.66c1.308,0.957,2.828,1.844,4.557,2.66c1.728,0.816,3.714,1.505,5.958,2.064
	c2.243,0.561,4.791,0.84,7.641,0.84c3.926,0,7.431-0.594,10.516-1.785c3.084-1.189,5.689-2.811,7.816-4.864
	c2.126-2.054,3.749-4.491,4.872-7.315c1.121-2.822,1.682-5.845,1.682-9.064c0-3.5-0.713-6.381-2.139-8.645
	c-1.426-2.264-3.307-4.154-5.644-5.67c-2.336-1.517-4.989-2.789-7.956-3.816c-2.967-1.025-6.017-2.029-9.147-3.01
	c-3.131-0.979-6.181-2.076-9.148-3.289s-5.62-2.766-7.956-4.655c-2.337-1.89-4.219-4.246-5.644-7.07
	c-1.425-2.823-2.137-6.358-2.137-10.605c0-3.313,0.63-6.51,1.892-9.59s3.107-5.798,5.538-8.155c2.43-2.355,5.433-4.246,9.008-5.67
	c3.574-1.423,7.652-2.135,12.232-2.135c5.14,0,9.754,0.817,13.844,2.45c4.088,1.634,7.813,4.13,11.176,7.49L435.529,933.04z"/>
<path fill="#FFFFFF" d="M525.408,921v6.09h-34.791v92.959h-7.14v-92.959h-35V921H525.408z"/>
<path fill="#FFFFFF" d="M609.057,1020.049h-5.53c-0.653,0-1.189-0.174-1.609-0.524s-0.747-0.806-0.98-1.365l-11.689-28.771h-48.65
	l-11.62,28.771c-0.187,0.515-0.514,0.957-0.979,1.33c-0.468,0.374-1.027,0.56-1.681,0.56h-5.46L561.387,921h7.14L609.057,1020.049z
	 M542.767,984.069h44.38l-20.229-50.05c-0.327-0.793-0.654-1.691-0.98-2.695c-0.327-1.003-0.654-2.065-0.979-3.185
	c-0.327,1.12-0.654,2.182-0.98,3.185c-0.327,1.004-0.654,1.925-0.979,2.765L542.767,984.069z"/>
<path fill="#FFFFFF" d="M681.365,921v6.09h-34.79v92.959h-7.14v-92.959h-35V921H681.365z"/>
<path fill="#FFFFFF" d="M757.873,921v5.95h-52.149v40.04h43.399v5.81h-43.399v41.301h52.149v5.949h-59.359V921H757.873z"/>
<path fill="#FFFFFF" d="M866.651,969.439c0,7.42-1.236,14.234-3.71,20.439c-2.474,6.207-5.949,11.551-10.43,16.03
	c-4.479,4.479-9.87,7.957-16.17,10.431s-13.277,3.709-20.93,3.709h-38.641v-101.22h38.641c7.652,0,14.63,1.25,20.93,3.745
	c6.3,2.497,11.69,5.974,16.17,10.43c4.48,4.457,7.956,9.789,10.43,15.995C865.415,955.207,866.651,962.02,866.651,969.439z
	 M847.401,969.439c0-5.553-0.747-10.535-2.239-14.945c-1.494-4.41-3.617-8.143-6.37-11.2c-2.754-3.056-6.103-5.401-10.045-7.035
	c-3.944-1.633-8.39-2.45-13.335-2.45h-19.67v71.26h19.67c4.945,0,9.391-0.815,13.335-2.45c3.942-1.633,7.291-3.979,10.045-7.035
	c2.753-3.056,4.876-6.789,6.37-11.199C846.654,979.975,847.401,974.993,847.401,969.439z"/>
<path fill="#FFFFFF" d="M945.261,918.829v14.98h-44.869v28.07h35.35v14.49h-35.35V1005h44.869v15.049h-63.84v-101.22H945.261z"/>
<path fill="#FFFFFF" d="M951.631,918.829h15.189c1.633,0,2.963,0.397,3.99,1.19c1.026,0.794,1.796,1.82,2.31,3.08l23.801,61.741
	c0.793,2.006,1.551,4.211,2.274,6.614c0.724,2.404,1.411,4.935,2.065,7.595c1.073-5.365,2.402-10.103,3.99-14.209l23.729-61.741
	c0.42-1.073,1.166-2.053,2.24-2.94c1.073-0.886,2.403-1.33,3.99-1.33h15.189l-40.88,101.22h-17.01L951.631,918.829z"/>
</svg>
